Coordinates
version=1
nRows=7
nColumns=40
inDegrees=yes

Units are S.I. units (second, meters, Newtons, ...)
Angles are in degrees.

endheader
time	pelvis_tilt	pelvis_list	pelvis_rotation	pelvis_tx	pelvis_ty	pelvis_tz	hip_flexion_r	hip_adduction_r	hip_rotation_r	knee_angle_r	knee_angle_r_beta	ankle_angle_r	subtalar_angle_r	mtp_angle_r	hip_flexion_l	hip_adduction_l	hip_rotation_l	knee_angle_l	knee_angle_l_beta	ankle_angle_l	subtalar_angle_l	mtp_angle_l	lumbar_extension	lumbar_bending	lumbar_rotation	arm_flex_r	arm_add_r	arm_rot_r	elbow_flex_r	pro_sup_r	wrist_flex_r	wrist_dev_r	arm_flex_l	arm_add_l	arm_rot_l	elbow_flex_l	pro_sup_l	wrist_flex_l	wrist_dev_l
      8.42750000	     -3.39097348	     -3.63239106	      4.55141940	      1.00928097	      0.92770273	      0.47660423	      1.88837659	     -1.26767937	    -15.14918330	     22.92109144	     22.92109144	     16.59213506	     -0.47492537	     -5.62157784	     21.74760450	     -4.12809104	     -0.98952880	     25.18034471	     25.18034471	      9.85289342	    -14.57609809	      3.92197846	     -8.10146992	      3.37853030	      2.08174783	     16.54371087	    -14.24509759	      2.43768606	     51.48623192	     45.54351775	      0.00000000	      0.00000000	     -1.53221289	     -8.27407394	     -7.50875226	     31.01162370	     45.27350082	      0.00000000	      0.00000000
      8.44085714	     -3.21169977	     -3.58767598	      4.16384750	      1.00972981	      0.92883489	      0.47386159	      2.50510255	     -1.88471862	    -14.74267087	     25.08608731	     25.08608731	     16.10626170	     -0.83664837	     -6.31578648	     20.85410390	     -4.04819821	     -1.46530250	     24.81227698	     24.81227698	     10.15686955	    -14.44783216	      3.86570170	     -8.15473674	      3.36186579	      2.13436389	     14.71980408	    -14.41883880	      2.62646208	     50.16768610	     45.57216218	      0.00000000	      0.00000000	     -0.99358241	     -8.40009451	     -7.44994594	     31.66481690	     45.28266777	      0.00000000	      0.00000000
      8.45421429	     -3.13072095	     -3.59847804	      3.76460072	      1.01005451	      0.92974338	      0.47116975	      3.38369315	     -2.46943518	    -14.28170070	     27.44724444	     27.44724444	     15.23574500	     -1.41706473	     -7.69137846	     20.08670755	     -4.00543626	     -1.91164082	     24.45270889	     24.45270889	     10.38879061	    -14.37283344	      3.74512065	     -8.06861701	      3.39439556	      2.28860198	     13.01217614	    -14.59232897	      2.76330824	     48.08005928	     45.63120125	      0.00000000	      0.00000000	     -0.49676431	     -8.54493377	     -7.21912962	     32.73773401	     45.27462264	      0.00000000	      0.00000000
      8.46757143	     -2.91905049	     -3.54939888	      3.34212033	      1.01026730	      0.93074105	      0.46849889	      4.32135832	     -3.15108257	    -13.74367143	     30.14043349	     30.14043349	     14.33002315	     -2.02198083	     -8.79729495	     19.14242920	     -3.91038559	     -2.40934372	     24.04051426	     24.04051426	     10.64093921	    -14.21252260	      3.64666151	     -8.20132004	      3.38017600	      2.20787718	     11.43767708	    -14.67372333	      2.88789658	     46.47993925	     45.67438511	      0.00000000	      0.00000000	      0.02327236	     -8.74782393	     -7.09865865	     33.57099025	     45.27515809	      0.00000000	      0.00000000
      8.48092857	     -2.77803980	     -3.61223484	      2.92436039	      1.01031772	      0.93145649	      0.46598759	      5.29324822	     -3.60366219	    -13.02576089	     32.43793122	     32.43793122	     11.40711012	     -4.00351291	    -14.83288309	     18.34010656	     -3.92659558	     -2.85838767	     23.67929275	     23.67929275	     10.65606429	    -14.19776479	      2.96761945	     -8.18741486	      3.45865175	      1.53410333	     11.37647121	    -14.03142625	      2.68464013	     41.23042111	     45.86703077	      0.00000000	      0.00000000	     -0.67403556	     -9.53528027	     -5.33723981	     36.75289979	     45.12810768	      0.00000000	      0.00000000
      8.49428571	     -2.61802421	     -3.55119937	      2.47050879	      1.01017485	      0.93208130	      0.46344650	      6.65197156	     -4.33695583	    -12.40258301	     35.65119654	     35.65119654	     10.26355054	     -4.66816013	    -15.46417369	     17.51882756	     -3.81094190	     -3.39530306	     23.34638932	     23.34638932	     10.92462791	    -14.04741849	      2.88744906	     -8.30505264	      3.44513119	      1.52874407	      9.66548366	    -14.26725743	      2.80168965	     40.10102112	     45.89088712	      0.00000000	      0.00000000	      0.03015613	     -9.74366232	     -5.33141834	     37.45732281	     45.14969718	      0.00000000	      0.00000000
      8.50764286	     -2.49804868	     -3.63806196	      1.99579688	      1.00980885	      0.93243020	      0.46114181	      8.14438074	     -4.76931254	    -11.51587796	     38.81730167	     38.81730167	      8.51258209	     -6.12627411	    -16.84479112	     16.87998337	     -3.87171413	     -3.89323501	     23.21217662	     23.21217662	     11.17777061	    -13.93664600	      2.56840594	     -8.37731392	      3.57374136	      1.84501626	      8.14275458	    -14.53588179	      2.80423044	     37.82459621	     45.96302129	      0.00000000	      0.00000000	      0.63739241	    -10.03093807	     -4.89809526	     39.14561211	     45.14814724	      0.00000000	      0.00000000
